<?xml version="1.0" encoding="utf-8"?>
<!-- Generator: Adobe Illustrator 16.0.0, SVG Export Plug-In . SVG Version: 6.00 Build 0)  -->
<!DOCTYPE svg PUBLIC "-//W3C//DTD SVG 1.1//EN" "http://www.w3.org/Graphics/SVG/1.1/DTD/svg11.dtd">
<svg version="1.1" id="Layer_1" xmlns="http://www.w3.org/2000/svg" xmlns:xlink="http://www.w3.org/1999/xlink" x="0px" y="0px"
	 width="300px" height="200px" viewBox="0 0 300 200" enable-background="new 0 0 300 200" xml:space="preserve">
<path fill="#ffffff" d="M296.195,120.222l-11.671-16.637l9.888-23.039c0.157-0.364,0.101-0.787-0.144-1.098
	c-0.243-0.314-0.637-0.466-1.03-0.405l-22.468,3.645l0.006-15.071c0-0.32-0.141-0.624-0.387-0.83
	c-0.243-0.208-0.565-0.296-0.88-0.243l-16.787,2.795l-0.002-14.753c0-0.321-0.143-0.624-0.387-0.83
	c-0.243-0.207-0.563-0.298-0.881-0.243L50.42,87.155c-0.524,0.087-0.908,0.542-0.909,1.072l-0.013,15.461l-19.448,3.188
	c-0.525,0.085-0.912,0.542-0.912,1.074l0.003,15.664l-24.621,4.07c-0.369,0.063-0.681,0.308-0.824,0.654
	c-0.146,0.342-0.103,0.738,0.112,1.045l11.668,16.639L5.59,169.061c-0.157,0.365-0.101,0.789,0.146,1.104
	c0.207,0.264,0.523,0.414,0.853,0.414c0.061,0,0.122-0.006,0.183-0.016l59.568-10.129c0.539-0.094,0.913-0.566,0.901-1.096
	c0-0.045-0.005-0.09-0.01-0.135c-0.001-0.008,0-0.016-0.001-0.023c-0.001-0.004-0.002-0.008-0.003-0.012
	c-0.007-0.053-0.007-0.102-0.021-0.152l-4.009-14.42l23.052-3.875c0.004-0.002,0.009-0.002,0.016-0.006
	c0.04-0.008,0.076-0.02,0.114-0.031c0.032-0.008,0.064-0.016,0.094-0.029c0.029-0.01,0.057-0.025,0.086-0.041
	c0.035-0.018,0.07-0.033,0.103-0.053c0.023-0.018,0.045-0.039,0.068-0.053c0.032-0.027,0.068-0.051,0.097-0.082
	c0.002-0.004,0.007-0.004,0.011-0.008c0.007-0.006,0.012-0.02,0.021-0.027c0.049-0.053,0.092-0.109,0.13-0.168
	c0.014-0.023,0.026-0.045,0.038-0.07c0.034-0.061,0.06-0.123,0.079-0.191c0.005-0.018,0.013-0.031,0.016-0.045
	c0.022-0.084,0.031-0.166,0.033-0.254c0-0.023-0.003-0.049-0.004-0.07c-0.002-0.041-0.002-0.084-0.009-0.125
	c-0.002-0.023-0.013-0.045-0.017-0.066c-0.004-0.016-0.003-0.031-0.006-0.045l-3.94-14.175l136.013-22.873l0.914,14.684
	c0,0.016,0.006,0.028,0.007,0.04c0.004,0.026,0,0.049,0.008,0.072c0.007,0.052,0.022,0.101,0.038,0.149
	c0,0.011,0.003,0.021,0.007,0.028c0.027,0.081,0.067,0.159,0.115,0.229c0.007,0.014,0.021,0.029,0.029,0.045
	c0.044,0.061,0.095,0.119,0.151,0.171c0.007,0.007,0.016,0.014,0.024,0.022c0.062,0.054,0.133,0.1,0.211,0.14
	c0.009,0.001,0.015,0.01,0.022,0.016c0.014,0.005,0.027,0.009,0.039,0.014c0.048,0.022,0.101,0.038,0.153,0.052
	c0.02,0.007,0.037,0.015,0.062,0.018c0.07,0.018,0.143,0.024,0.218,0.024h0.002l0,0c0,0,0,0,0.002,0
	c0.057,0,0.115-0.003,0.177-0.014l16.237-2.724l0.411,15.009c0.01,0.398,0.239,0.762,0.599,0.941
	c0.153,0.076,0.32,0.115,0.487,0.115c0.076,0,0.149-0.018,0.224-0.033c0.046,0.006,0.093,0.016,0.142,0.016
	c0.062,0,0.122-0.008,0.184-0.018l55.831-9.39c0.368-0.062,0.68-0.308,0.821-0.65C296.448,120.92,296.407,120.528,296.195,120.222z
	 M268.601,68.899l-0.013,38.974l-42.823,7.184l26.106-18.245c0.498-0.108,0.858-0.546,0.858-1.061l-0.007-24.209L268.601,68.899z
	 M51.687,89.15l198.857-33.284l0.011,38.964L51.655,128.279L51.687,89.15z M49.497,105.896l-0.02,23.668
	c0,0.018,0.005,0.037,0.005,0.055c0.002,0.047,0.007,0.092,0.016,0.135c0.005,0.031,0.012,0.061,0.021,0.092
	c0.011,0.041,0.024,0.084,0.042,0.123c0.011,0.031,0.023,0.059,0.037,0.086c0.02,0.037,0.044,0.076,0.067,0.113
	c0.019,0.021,0.034,0.051,0.052,0.072c0.031,0.039,0.068,0.074,0.104,0.111c0.015,0.014,0.026,0.031,0.042,0.043
	c0.003,0.002,0.008,0.004,0.013,0.008c0.02,0.018,0.043,0.031,0.064,0.045c0.034,0.025,0.069,0.049,0.104,0.07
	c0.024,0.012,0.049,0.023,0.073,0.035c0.039,0.018,0.079,0.033,0.118,0.045c0.011,0.004,0.022,0.01,0.034,0.014l30.859,8.768
	l-49.803,8.375l-0.009-38.876L49.497,105.896z M17.717,146.324c0.147-0.346,0.107-0.746-0.11-1.053L6.583,129.553l22.561-3.732
	l0.005,23.219c0,0.318,0.141,0.623,0.386,0.83c0.141,0.117,0.309,0.199,0.487,0.234c0.099,0.07,0.211,0.131,0.336,0.166
	l30.998,8.807l-52.978,9.01L17.717,146.324z M243.607,128.436l26.371-18.43c0.12-0.083,0.213-0.188,0.287-0.301
	c0.303-0.197,0.499-0.535,0.499-0.911l0.006-23.903l20.86-3.383l-9.345,21.775c-0.148,0.347-0.105,0.747,0.111,1.056l11.027,15.721
	L243.607,128.436z M87.02,45.892c-0.225,0.448-0.519,1.041-0.883,1.777c-0.364,0.736-0.782,1.561-1.251,2.475
	c-0.471,0.914-0.98,1.896-1.531,2.948c-0.55,1.053-1.119,2.111-1.708,3.177c-0.589,1.065-1.193,2.116-1.808,3.152
	c-0.616,1.037-1.215,2.001-1.798,2.893c1.43-0.385,2.808-0.98,4.132-1.784c1.325-0.804,2.566-1.738,3.726-2.799
	c1.159-1.062,2.218-2.212,3.178-3.454c0.961-1.24,1.782-2.495,2.463-3.769c0.682-1.274,1.212-2.524,1.591-3.753
	c0.376-1.228,0.565-2.358,0.565-3.392c0-0.874-0.108-1.664-0.328-2.369c-0.219-0.707-0.549-1.292-0.993-1.762
	c-0.444-0.468-1.011-0.797-1.698-0.986c-0.689-0.19-1.498-0.208-2.425-0.052c-0.86,0.144-1.724,0.372-2.592,0.683
	c-0.867,0.312-1.698,0.671-2.494,1.083c-0.795,0.411-1.526,0.861-2.194,1.35c-0.67,0.49-1.243,0.993-1.719,1.51
	c-0.529,0.671-0.996,1.333-1.4,1.983c-0.404,0.65-0.801,1.24-1.192,1.769c-0.391,0.529-0.812,0.978-1.261,1.343
	c-0.452,0.368-0.98,0.601-1.59,0.705C72.669,48.81,72.1,48.4,72.1,47.396c0-0.636,0.206-1.355,0.615-2.159
	c0.41-0.804,0.984-1.628,1.718-2.473c0.735-0.846,1.609-1.688,2.623-2.525c1.012-0.837,2.128-1.614,3.348-2.329
	c1.218-0.713,2.515-1.338,3.894-1.873c1.377-0.536,2.794-0.925,4.251-1.169c1.695-0.283,3.173-0.279,4.43,0.014
	c1.258,0.293,2.301,0.81,3.129,1.553c0.828,0.744,1.443,1.676,1.849,2.8c0.403,1.124,0.605,2.375,0.605,3.752
	s-0.234,2.86-0.706,4.448c-0.471,1.589-1.158,3.187-2.066,4.796c-0.908,1.609-2.026,3.179-3.357,4.714
	c-1.332,1.535-2.861,2.941-4.589,4.224c-1.729,1.283-3.644,2.392-5.742,3.326c-2.099,0.934-4.368,1.604-6.803,2.012
	c-0.53,0.09-0.948-0.01-1.252-0.296c-0.304-0.287-0.457-0.675-0.457-1.166c0-0.383,0.067-0.766,0.199-1.146
	c0.132-0.38,0.306-0.74,0.517-1.08l8.167-17.597c0.383-0.661,0.764-1.202,1.142-1.622c0.377-0.421,0.729-0.758,1.053-1.012
	c0.325-0.253,0.611-0.429,0.865-0.532c0.251-0.102,0.443-0.163,0.576-0.187c0.596-0.099,1.019,0.001,1.271,0.304
	c0.251,0.303,0.377,0.691,0.377,1.168c0,0.384-0.067,0.801-0.198,1.247C87.423,45.037,87.245,45.471,87.02,45.892z M107.344,45.928
	c1.099-0.185,1.919-0.057,2.463,0.382c0.543,0.439,0.814,1.128,0.814,2.068c0,0.557-0.145,1.164-0.437,1.823
	c-0.291,0.658-0.795,1.361-1.509,2.11c-0.715,0.749-1.673,1.551-2.871,2.407c-1.199,0.857-2.699,1.767-4.5,2.729
	c0.067,0.374,0.272,0.641,0.616,0.801c0.345,0.16,0.801,0.193,1.372,0.099c0.609-0.103,1.261-0.301,1.957-0.597
	c0.693-0.295,1.383-0.639,2.065-1.031c0.683-0.394,1.348-0.806,1.997-1.239c0.648-0.433,1.234-0.839,1.758-1.219
	c0.523-0.377,0.961-0.703,1.312-0.974c0.352-0.271,0.585-0.443,0.706-0.515c0.119-0.099,0.229-0.165,0.328-0.194
	c0.099-0.029,0.189-0.051,0.267-0.064c0.159-0.025,0.292-0.012,0.398,0.043c0.106,0.055,0.195,0.126,0.268,0.213
	c0.072,0.087,0.122,0.185,0.149,0.292c0.025,0.108,0.04,0.202,0.04,0.281c0,0.119-0.014,0.264-0.04,0.434
	c-0.028,0.17-0.125,0.376-0.298,0.615c-0.066,0.077-0.288,0.293-0.666,0.648c-0.377,0.354-0.863,0.78-1.46,1.277
	c-0.594,0.497-1.288,1.034-2.076,1.608c-0.788,0.577-1.623,1.124-2.503,1.641c-0.88,0.518-1.797,0.981-2.75,1.385
	c-0.955,0.405-1.896,0.684-2.822,0.839c-0.796,0.133-1.5,0.098-2.116-0.103c-0.616-0.202-1.14-0.525-1.57-0.969
	c-0.43-0.445-0.759-0.986-0.983-1.624c-0.226-0.637-0.337-1.327-0.337-2.069c0-0.569,0.113-1.214,0.337-1.935
	c0.225-0.719,0.548-1.459,0.973-2.219c0.425-0.76,0.944-1.518,1.559-2.277c0.616-0.757,1.308-1.453,2.076-2.086
	c0.768-0.631,1.614-1.176,2.533-1.635C105.313,46.42,106.297,46.104,107.344,45.928z M106.628,48.789
	c-0.067-0.002-0.125,0-0.178,0.01c-0.054,0.009-0.114,0.019-0.179,0.029c-0.504,0.084-0.973,0.262-1.412,0.534
	c-0.437,0.272-0.837,0.601-1.201,0.986c-0.365,0.386-0.689,0.808-0.974,1.266c-0.284,0.459-0.539,0.909-0.764,1.349
	c-0.225,0.443-0.414,0.862-0.566,1.258s-0.267,0.726-0.347,0.991c0.463-0.316,0.943-0.668,1.44-1.056
	c0.496-0.387,0.964-0.756,1.399-1.107c0.438-0.353,0.818-0.667,1.144-0.946c0.324-0.279,0.552-0.47,0.685-0.572
	c0.596-0.47,1.006-0.887,1.232-1.249c0.225-0.361,0.337-0.663,0.337-0.899c0-0.199-0.064-0.348-0.189-0.446
	C106.93,48.837,106.786,48.789,106.628,48.789z M115.748,53.243c-0.146,0.33-0.288,0.707-0.427,1.133
	c-0.138,0.427-0.208,0.8-0.208,1.118c0,0.199,0.04,0.352,0.119,0.458c0.079,0.106,0.232,0.14,0.457,0.101
	c0.278-0.046,0.626-0.187,1.043-0.423c0.417-0.235,0.867-0.529,1.351-0.882c0.483-0.352,0.986-0.748,1.509-1.187
	c0.523-0.438,1.042-0.89,1.56-1.353c0.517-0.464,1.009-0.924,1.48-1.379c0.471-0.457,0.891-0.875,1.261-1.255
	c0.106-0.111,0.233-0.197,0.378-0.262c0.145-0.064,0.271-0.105,0.376-0.122c0.265-0.045,0.483,0.011,0.657,0.167
	c0.171,0.157,0.259,0.388,0.259,0.691c0,0.279-0.094,0.605-0.279,0.981c-0.187,0.376-0.51,0.768-0.973,1.177
	c-0.846,0.923-1.701,1.807-2.563,2.653c-0.86,0.847-1.718,1.609-2.572,2.289c-0.854,0.679-1.703,1.248-2.543,1.705
	c-0.84,0.459-1.658,0.755-2.453,0.888c-0.543,0.091-0.996,0.094-1.361,0.009c-0.365-0.084-0.657-0.234-0.875-0.449
	c-0.217-0.214-0.375-0.486-0.467-0.815c-0.092-0.33-0.14-0.686-0.14-1.07c0-0.65,0.095-1.33,0.288-2.045
	c0.192-0.712,0.421-1.377,0.685-1.992c0.465-1.111,0.934-2.215,1.412-3.315c0.476-1.099,0.914-2.105,1.312-3.021l6.019-13.82
	c0.239-0.557,0.561-0.975,0.964-1.254c0.403-0.279,0.811-0.454,1.222-0.522c0.41-0.069,0.785-0.02,1.123,0.151
	c0.337,0.168,0.506,0.504,0.506,1.007c0,0.239-0.057,0.5-0.169,0.783c-0.112,0.284-0.255,0.593-0.427,0.926
	c-0.331,0.679-0.725,1.506-1.183,2.481c-0.457,0.979-0.947,2.04-1.47,3.188c-0.524,1.147-1.06,2.339-1.609,3.577
	c-0.549,1.238-1.086,2.444-1.609,3.617c-0.523,1.174-1.014,2.286-1.471,3.336C116.473,51.562,116.078,52.473,115.748,53.243z
	 M125.502,44.638c0.225-0.408,0.483-0.717,0.776-0.925c0.29-0.208,0.588-0.337,0.894-0.388c0.504-0.083,0.938,0.005,1.3,0.269
	c0.364,0.263,0.547,0.647,0.547,1.15c-0.013,0.122-0.03,0.244-0.05,0.367c-0.019,0.122-0.062,0.248-0.129,0.378
	c-0.185,0.376-0.337,0.692-0.456,0.951c-0.12,0.259-0.229,0.499-0.328,0.721c-0.1,0.221-0.196,0.439-0.289,0.654
	c-0.092,0.213-0.206,0.471-0.338,0.771c-0.159,0.357-0.338,0.749-0.536,1.173c-0.198,0.424-0.387,0.856-0.565,1.296
	c-0.179,0.44-0.331,0.869-0.457,1.288c-0.126,0.42-0.188,0.794-0.188,1.125c0,0.359,0.089,0.579,0.268,0.661
	c0.179,0.083,0.434,0.096,0.764,0.041c0.371-0.062,0.759-0.206,1.163-0.433c0.403-0.228,0.811-0.5,1.222-0.821
	c0.409-0.319,0.814-0.675,1.21-1.066c0.398-0.391,0.773-0.782,1.123-1.172c0.351-0.389,0.677-0.761,0.973-1.116
	c0.298-0.354,0.546-0.668,0.746-0.94c0.264-0.295,0.529-0.466,0.794-0.51c0.238-0.041,0.434,0.033,0.586,0.219
	c0.152,0.187,0.229,0.446,0.229,0.776c0,0.305-0.076,0.642-0.229,1.012c-0.152,0.371-0.401,0.736-0.745,1.099
	c-0.676,0.802-1.364,1.577-2.067,2.323c-0.703,0.747-1.421,1.423-2.155,2.029c-0.735,0.607-1.474,1.117-2.215,1.533
	c-0.741,0.416-1.488,0.687-2.244,0.813c-1.073,0.18-1.917,0.046-2.533-0.4c-0.616-0.448-0.925-1.253-0.925-2.418
	c0-0.61,0.086-1.22,0.259-1.832c0.172-0.611,0.377-1.212,0.617-1.802c0.238-0.588,0.49-1.161,0.754-1.716
	c0.264-0.554,0.49-1.078,0.675-1.574c0.066-0.183,0.182-0.468,0.347-0.853c0.166-0.385,0.342-0.778,0.527-1.181
	C125.038,45.669,125.263,45.168,125.502,44.638z M127.687,39.802c0-0.305,0.057-0.628,0.168-0.973
	c0.112-0.343,0.281-0.666,0.506-0.969c0.225-0.302,0.508-0.567,0.846-0.796c0.337-0.228,0.737-0.383,1.201-0.46
	c0.768-0.128,1.304-0.069,1.609,0.179c0.304,0.247,0.457,0.594,0.457,1.046c0,0.251-0.05,0.538-0.149,0.859
	c-0.099,0.322-0.249,0.627-0.448,0.919c-0.198,0.291-0.457,0.549-0.774,0.775c-0.318,0.226-0.696,0.375-1.133,0.447
	c-0.82,0.139-1.397,0.105-1.728-0.098C127.911,40.529,127.726,40.22,127.687,39.802z M141.653,40.206
	c0.583-0.097,1.092-0.109,1.53-0.037c0.437,0.072,0.807,0.169,1.112,0.29c0.345,0.155,0.649,0.335,0.913,0.542
	c0.186-0.15,0.384-0.295,0.596-0.439c0.187-0.122,0.391-0.24,0.617-0.352c0.225-0.11,0.45-0.185,0.675-0.222
	c0.583-0.097,1.034-0.053,1.351,0.132c0.318,0.185,0.477,0.444,0.477,0.775c0,0.172-0.048,0.352-0.141,0.54l-4.648,9.579
	l0.377-0.401c1.562-1.175,2.846-2.109,3.854-2.799c1.006-0.692,1.808-1.213,2.404-1.565c0.596-0.351,1.023-0.579,1.282-0.681
	c0.259-0.103,0.421-0.162,0.486-0.171c0.306-0.052,0.54,0.026,0.706,0.229c0.165,0.205,0.249,0.479,0.249,0.824
	c0,0.384-0.11,0.792-0.327,1.226c-0.22,0.433-0.554,0.775-1.004,1.022c-0.595,0.404-1.291,0.849-2.087,1.333
	s-1.623,1.01-2.484,1.577c-0.86,0.567-1.724,1.185-2.592,1.854c-0.868,0.668-1.678,1.386-2.434,2.146l-3.854,7.619
	c-0.317,0.809-0.606,1.472-0.863,1.992c-0.258,0.52-0.514,0.941-0.765,1.261c-0.252,0.32-0.509,0.555-0.775,0.705
	s-0.569,0.254-0.916,0.312c-0.516,0.087-0.923-0.023-1.221-0.332c-0.299-0.308-0.448-0.714-0.448-1.218
	c0-0.53,0.126-1.167,0.376-1.91c0.253-0.743,0.607-1.562,1.064-2.452c0.457-0.891,1.009-1.837,1.659-2.84
	c0.648-1.003,1.37-2.035,2.164-3.095l2.464-3.551c-0.503,0.547-1,1.028-1.489,1.441c-0.49,0.414-0.96,0.76-1.412,1.042
	c-0.45,0.28-0.871,0.5-1.261,0.658c-0.391,0.158-0.731,0.262-1.023,0.311c-0.529,0.088-1.019,0.047-1.468-0.121
	c-0.451-0.17-0.838-0.447-1.162-0.829c-0.326-0.383-0.581-0.857-0.766-1.421c-0.185-0.565-0.279-1.198-0.279-1.9
	c0-1.457,0.282-2.823,0.846-4.095c0.563-1.272,1.285-2.398,2.165-3.372c0.881-0.976,1.854-1.778,2.921-2.406
	C139.59,40.778,140.633,40.376,141.653,40.206z M140.897,43.828c-0.623,0.105-1.225,0.361-1.808,0.771
	c-0.583,0.409-1.1,0.905-1.55,1.49c-0.45,0.586-0.807,1.231-1.073,1.938c-0.265,0.707-0.397,1.412-0.397,2.113
	c0,0.212,0.017,0.438,0.05,0.677c0.034,0.24,0.106,0.456,0.218,0.649c0.113,0.192,0.279,0.34,0.497,0.443
	c0.219,0.103,0.52,0.121,0.904,0.059c0.278-0.048,0.606-0.224,0.984-0.533c0.377-0.308,0.768-0.684,1.172-1.129
	c0.404-0.445,0.798-0.929,1.182-1.45c0.383-0.521,0.731-1.026,1.042-1.516c0.311-0.488,0.559-0.923,0.745-1.306
	c0.185-0.382,0.277-0.659,0.277-0.832c0-0.292-0.078-0.532-0.237-0.725c-0.159-0.191-0.354-0.34-0.587-0.447
	c-0.231-0.106-0.477-0.176-0.734-0.207C141.324,43.794,141.096,43.796,140.897,43.828z M149.282,50.233
	c0.318-0.728,0.682-1.541,1.091-2.438c0.412-0.896,0.826-1.787,1.244-2.671s0.812-1.726,1.183-2.523
	c0.37-0.797,0.682-1.474,0.935-2.032l6.556-13.991c0.078-0.185,0.202-0.373,0.367-0.559c0.163-0.187,0.352-0.36,0.564-0.522
	c0.212-0.162,0.438-0.299,0.677-0.411c0.239-0.114,0.476-0.189,0.716-0.23c0.583-0.096,0.985-0.055,1.212,0.125
	c0.223,0.182,0.338,0.432,0.338,0.748c0,0.292-0.073,0.612-0.219,0.961c-0.146,0.349-0.311,0.678-0.495,0.986
	c-0.585,1.091-1.144,2.189-1.679,3.292c-0.536,1.102-1.072,2.212-1.61,3.329c-0.536,1.117-1.074,2.227-1.619,3.33
	c-0.542,1.104-1.113,2.203-1.709,3.295c0.369-0.42,0.767-0.855,1.182-1.312c0.417-0.454,0.87-0.879,1.36-1.28
	c0.491-0.4,1.026-0.751,1.609-1.055c0.583-0.302,1.232-0.514,1.948-0.633c0.423-0.072,0.827-0.099,1.211-0.083
	c0.386,0.014,0.724,0.088,1.013,0.216c0.293,0.13,0.524,0.336,0.696,0.619c0.171,0.282,0.259,0.648,0.259,1.1
	c0,0.596-0.09,1.158-0.27,1.684c-0.177,0.526-0.405,1.035-0.682,1.526c-0.28,0.491-0.586,0.964-0.916,1.424
	c-0.331,0.459-0.646,0.923-0.944,1.391c-0.299,0.467-0.557,0.944-0.775,1.43c-0.218,0.487-0.353,1-0.406,1.538
	c0,0.027-0.004,0.054-0.011,0.081c-0.007,0.028-0.011,0.054-0.011,0.081c0,0.266,0.089,0.417,0.269,0.452
	c0.18,0.037,0.405,0.031,0.685-0.016c0.358-0.061,0.742-0.193,1.152-0.401c0.411-0.208,0.826-0.462,1.243-0.763
	c0.418-0.302,0.833-0.634,1.25-0.995c0.418-0.36,0.815-0.725,1.195-1.094c0.376-0.367,0.724-0.72,1.04-1.059
	c0.319-0.338,0.589-0.633,0.815-0.882c0.118-0.125,0.245-0.226,0.378-0.302c0.133-0.074,0.259-0.122,0.378-0.142
	c0.238-0.039,0.44,0.016,0.605,0.167c0.164,0.15,0.248,0.38,0.248,0.683c0,0.279-0.095,0.612-0.288,1.002
	c-0.191,0.389-0.521,0.802-0.983,1.237c-0.728,0.758-1.47,1.492-2.226,2.201c-0.756,0.709-1.517,1.353-2.284,1.931
	c-0.768,0.58-1.532,1.065-2.293,1.458c-0.763,0.392-1.508,0.649-2.234,0.771c-0.941,0.158-1.695,0.068-2.265-0.267
	c-0.569-0.334-0.855-0.966-0.855-1.894c0-0.675,0.117-1.333,0.349-1.975c0.231-0.642,0.516-1.272,0.854-1.892
	c0.337-0.619,0.698-1.223,1.082-1.811c0.384-0.588,0.722-1.157,1.013-1.709c0.158-0.252,0.282-0.481,0.366-0.688
	c0.087-0.207,0.13-0.422,0.13-0.647c0-0.198-0.054-0.353-0.158-0.461c-0.107-0.108-0.271-0.144-0.498-0.106
	c-0.78,0.131-1.503,0.444-2.164,0.939c-0.663,0.495-1.272,1.086-1.828,1.775c-0.556,0.688-1.072,1.428-1.548,2.216
	c-0.478,0.789-0.921,1.542-1.334,2.259c-0.185,0.323-0.373,0.688-0.566,1.098c-0.191,0.41-0.39,0.829-0.594,1.262
	c-0.208,0.432-0.421,0.862-0.647,1.292c-0.223,0.429-0.459,0.815-0.703,1.16c-0.247,0.346-0.503,0.634-0.777,0.865
	c-0.271,0.23-0.552,0.371-0.842,0.42c-0.465,0.077-0.823,0.001-1.074-0.229c-0.251-0.229-0.377-0.548-0.377-0.959
	c0-0.305,0.053-0.634,0.16-0.99C148.872,51.207,149.044,50.764,149.282,50.233z M174.949,38.031
	c-0.491,1.036-0.955,2.045-1.39,3.024c-0.438,0.98-0.847,1.887-1.231,2.718c-0.158,0.346-0.315,0.738-0.466,1.182
	c-0.153,0.443-0.229,0.823-0.229,1.141c0,0.186,0.042,0.324,0.127,0.415c0.085,0.093,0.229,0.122,0.429,0.088
	c0.276-0.047,0.628-0.188,1.053-0.423c0.426-0.236,0.881-0.532,1.371-0.885s1.008-0.752,1.549-1.194
	c0.542-0.442,1.074-0.895,1.601-1.36c0.521-0.465,1.021-0.925,1.499-1.384c0.477-0.457,0.9-0.875,1.271-1.256
	c0.212-0.181,0.409-0.287,0.597-0.317c0.223-0.038,0.409,0.031,0.554,0.205c0.146,0.175,0.22,0.414,0.22,0.718
	s-0.073,0.628-0.22,0.97c-0.145,0.342-0.409,0.698-0.794,1.065c-0.86,0.926-1.73,1.814-2.612,2.664
	c-0.881,0.849-1.755,1.615-2.621,2.296c-0.867,0.681-1.725,1.253-2.574,1.711c-0.846,0.46-1.668,0.757-2.462,0.891
	c-0.529,0.089-0.974,0.093-1.332,0.014c-0.357-0.078-0.646-0.223-0.863-0.432c-0.218-0.208-0.375-0.467-0.467-0.776
	c-0.094-0.309-0.142-0.648-0.142-1.02c0-0.662,0.115-1.369,0.34-2.122c0.225-0.753,0.478-1.437,0.754-2.053
	c0.4-0.888,0.793-1.767,1.185-2.641c0.39-0.875,0.771-1.712,1.142-2.517l-0.856,0.142c-0.738,0.125-1.248,0.09-1.528-0.101
	c-0.277-0.192-0.414-0.439-0.414-0.744c0-0.132,0.041-0.303,0.126-0.509c0.086-0.207,0.213-0.406,0.378-0.6
	c0.164-0.193,0.369-0.369,0.606-0.528c0.238-0.16,0.509-0.264,0.814-0.315l2.146-0.359l4.192-9.026
	c0.264-0.547,0.591-0.962,0.982-1.247c0.39-0.283,0.797-0.461,1.223-0.531c0.396-0.067,0.761-0.022,1.093,0.134
	c0.331,0.157,0.495,0.479,0.495,0.97c0,0.252-0.057,0.516-0.167,0.794c-0.113,0.277-0.262,0.602-0.448,0.978
	c-0.118,0.246-0.266,0.539-0.437,0.877c-0.174,0.341-0.355,0.703-0.547,1.085c-0.191,0.383-0.391,0.784-0.596,1.202
	c-0.206,0.419-0.407,0.823-0.605,1.214c-0.449,0.923-0.927,1.897-1.432,2.921l6.478-1.083c0.316-0.054,0.607-0.086,0.874-0.098
	c0.264-0.011,0.492,0.017,0.683,0.084c0.191,0.068,0.341,0.179,0.448,0.333s0.161,0.377,0.161,0.668
	c0,0.146-0.024,0.296-0.069,0.448c-0.05,0.154-0.133,0.3-0.261,0.44c-0.125,0.141-0.297,0.269-0.517,0.386
	c-0.216,0.115-0.499,0.214-0.843,0.3L174.949,38.031z M193.226,34.735c-0.688,0.141-1.341,0.271-1.955,0.388
	c-0.616,0.117-1.215,0.227-1.799,0.331c-0.583,0.104-1.157,0.203-1.729,0.3c-0.569,0.095-1.146,0.191-1.728,0.289
	c-0.345,0.733-0.731,1.583-1.163,2.548c-0.431,0.966-0.881,1.979-1.348,3.038c-0.472,1.06-0.943,2.128-1.41,3.207
	c-0.472,1.079-0.92,2.1-1.343,3.065c-0.423,0.966-0.81,1.836-1.15,2.618c-0.347,0.779-0.624,1.397-0.836,1.858
	c-0.146,0.329-0.324,0.64-0.536,0.934c-0.213,0.293-0.446,0.554-0.697,0.781c-0.25,0.226-0.508,0.413-0.774,0.557
	c-0.265,0.144-0.51,0.235-0.732,0.272c-0.321,0.053-0.604,0.021-0.857-0.095c-0.25-0.118-0.376-0.349-0.376-0.693
	c0-0.171,0.038-0.38,0.118-0.626c0.08-0.244,0.192-0.532,0.338-0.86l7.014-16.034l-1.055,0.176
	c-0.729,0.122-1.225,0.092-1.487-0.089c-0.267-0.181-0.4-0.423-0.4-0.729c0-0.318,0.165-0.654,0.496-1.007
	c0.333-0.354,0.816-0.583,1.45-0.689l2.344-0.394c0.94-2.05,1.884-3.771,2.833-5.161c0.945-1.39,1.875-2.519,2.791-3.388
	c0.912-0.868,1.804-1.513,2.672-1.936c0.866-0.424,1.698-0.701,2.492-0.835c0.372-0.062,0.725-0.048,1.062,0.042
	c0.338,0.09,0.635,0.258,0.896,0.505c0.257,0.248,0.467,0.582,0.626,0.999c0.158,0.417,0.237,0.923,0.237,1.519
	c0,0.569-0.079,1.212-0.237,1.928c-0.04,0.192-0.118,0.361-0.239,0.507c-0.118,0.146-0.252,0.271-0.397,0.375
	c-0.146,0.103-0.292,0.185-0.437,0.242c-0.147,0.057-0.272,0.095-0.378,0.113c-0.266,0.043-0.512,0.022-0.734-0.067
	c-0.226-0.088-0.34-0.264-0.34-0.528c0-0.173,0.012-0.333,0.03-0.483c0.02-0.149,0.03-0.296,0.03-0.441
	c0-0.556-0.105-0.937-0.307-1.14c-0.209-0.205-0.483-0.278-0.826-0.219c-0.41,0.069-0.892,0.327-1.438,0.777
	c-0.549,0.449-1.106,1.019-1.67,1.709c-0.562,0.689-1.103,1.458-1.62,2.308c-0.516,0.847-0.939,1.696-1.271,2.545l4.628-0.774
	c0.411-0.068,0.794-0.127,1.154-0.173c0.356-0.046,0.671-0.058,0.941-0.039c0.271,0.022,0.485,0.095,0.638,0.221
	c0.151,0.127,0.227,0.336,0.227,0.627c0,0.146-0.024,0.296-0.077,0.451c-0.055,0.154-0.143,0.306-0.269,0.452
	c-0.124,0.146-0.303,0.282-0.527,0.405C193.875,34.544,193.585,34.648,193.226,34.735z M210.73,38.342
	c-0.586,0.76-1.263,1.519-2.037,2.277c-0.777,0.759-1.574,1.452-2.396,2.08c-0.82,0.627-1.626,1.156-2.423,1.588
	c-0.793,0.431-1.509,0.7-2.144,0.806c-0.638,0.106-1.153,0.015-1.552-0.277c-0.397-0.292-0.595-0.867-0.595-1.728
	c0-0.609,0.106-1.335,0.318-2.179c-0.345,0.574-0.775,1.169-1.292,1.786c-0.518,0.615-1.107,1.198-1.77,1.746
	c-0.661,0.547-1.402,1.026-2.225,1.436c-0.821,0.408-1.717,0.694-2.681,0.856c-0.438,0.072-0.857,0.097-1.262,0.071
	c-0.403-0.025-0.759-0.125-1.062-0.299c-0.307-0.173-0.551-0.435-0.735-0.781c-0.188-0.347-0.278-0.804-0.278-1.375
	c0-0.013,0.024-0.218,0.08-0.619c0.052-0.4,0.22-1.042,0.505-1.932s0.727-2.052,1.321-3.49c0.598-1.437,1.437-3.2,2.522-5.289
	c0.279-0.55,0.6-0.964,0.964-1.245c0.364-0.279,0.757-0.455,1.183-0.525c0.186-0.031,0.378-0.04,0.577-0.026
	c0.199,0.012,0.384,0.054,0.557,0.125c0.17,0.07,0.309,0.173,0.416,0.307c0.107,0.136,0.159,0.301,0.159,0.499
	c0,0.133-0.021,0.262-0.06,0.387c-0.067,0.236-0.208,0.554-0.428,0.955c-0.219,0.401-0.474,0.862-0.766,1.38
	c-0.293,0.52-0.6,1.078-0.923,1.675c-0.324,0.597-0.626,1.211-0.902,1.839c-0.279,0.63-0.519,1.262-0.717,1.896
	c-0.199,0.636-0.31,1.243-0.338,1.814c0,0.239,0.065,0.447,0.198,0.623c0.132,0.177,0.352,0.239,0.654,0.188
	c0.864-0.143,1.685-0.52,2.467-1.128c0.779-0.608,1.504-1.322,2.166-2.14c0.66-0.819,1.259-1.682,1.797-2.587
	c0.536-0.905,0.982-1.724,1.34-2.459c0.252-0.492,0.476-1.013,0.666-1.562c0.193-0.547,0.399-1.061,0.626-1.535
	c0.226-0.475,0.484-0.882,0.777-1.222c0.29-0.34,0.654-0.546,1.092-0.62c0.478-0.08,0.854,0.01,1.133,0.269
	c0.279,0.258,0.418,0.599,0.418,1.022c0,0.239-0.092,0.582-0.269,1.028c-0.177,0.448-0.404,0.963-0.676,1.544
	c-0.271,0.583-0.567,1.204-0.884,1.867c-0.318,0.663-0.614,1.332-0.885,2.005c-0.271,0.674-0.495,1.329-0.676,1.961
	c-0.177,0.631-0.268,1.207-0.268,1.723c0,0.477,0.293,0.667,0.874,0.569c0.41-0.069,0.919-0.274,1.528-0.613
	c0.61-0.34,1.248-0.782,1.919-1.323c0.669-0.542,1.337-1.162,2.004-1.856c0.669-0.694,1.263-1.422,1.777-2.185L210.73,38.342z
	 M211.347,37.245c-0.148,0.33-0.289,0.707-0.429,1.134c-0.139,0.428-0.208,0.799-0.208,1.118c0,0.199,0.038,0.351,0.118,0.457
	c0.08,0.106,0.23,0.14,0.456,0.103c0.278-0.046,0.626-0.187,1.043-0.422c0.416-0.236,0.866-0.531,1.352-0.882
	c0.481-0.353,0.986-0.748,1.509-1.188c0.523-0.438,1.044-0.89,1.56-1.352c0.517-0.464,1.011-0.923,1.48-1.382
	c0.47-0.456,0.892-0.874,1.262-1.252c0.107-0.112,0.232-0.198,0.378-0.262c0.145-0.065,0.271-0.105,0.377-0.124
	c0.265-0.044,0.483,0.013,0.657,0.169c0.172,0.156,0.258,0.386,0.258,0.69c0,0.279-0.094,0.606-0.278,0.981
	c-0.185,0.376-0.511,0.768-0.973,1.176c-0.848,0.924-1.702,1.81-2.564,2.655c-0.86,0.848-1.718,1.608-2.571,2.288
	c-0.854,0.68-1.704,1.248-2.544,1.708c-0.841,0.458-1.658,0.754-2.453,0.888c-0.542,0.091-0.997,0.093-1.361,0.009
	c-0.363-0.085-0.656-0.235-0.873-0.45c-0.219-0.215-0.373-0.488-0.468-0.816c-0.092-0.329-0.139-0.686-0.139-1.069
	c0-0.648,0.098-1.331,0.288-2.045c0.192-0.715,0.422-1.378,0.688-1.992c0.463-1.11,0.932-2.216,1.41-3.315
	c0.476-1.101,0.914-2.107,1.31-3.021l6.019-13.822c0.238-0.557,0.561-0.975,0.965-1.253c0.403-0.279,0.812-0.454,1.221-0.521
	c0.411-0.069,0.786-0.019,1.124,0.148c0.337,0.169,0.506,0.505,0.506,1.008c0,0.239-0.057,0.5-0.169,0.784
	c-0.112,0.284-0.257,0.592-0.428,0.926c-0.33,0.679-0.726,1.505-1.182,2.482c-0.457,0.978-0.947,2.039-1.472,3.186
	c-0.521,1.147-1.058,2.34-1.608,3.576c-0.55,1.238-1.086,2.444-1.608,3.618c-0.522,1.173-1.015,2.284-1.47,3.335
	C212.071,35.564,211.676,36.476,211.347,37.245z M125.696,129.582l3.521-0.59l-0.142,0.676l-2.796,0.467l-0.508,2.471l2.306-0.389
	l-0.13,0.674l-2.307,0.387l-0.618,2.996l2.796-0.467l-0.141,0.674l-3.521,0.588L125.696,129.582z M132.718,132.051
	c-0.726-0.369-1.203-0.637-0.975-1.734c0.207-1.01,1.04-2.018,2.069-2.189c1.018-0.17,1.355,0.5,1.355,1.41l-0.737,0.23
	c0-0.531-0.152-1.037-0.77-0.932c-0.682,0.115-1.062,0.729-1.191,1.357c-0.12,0.605-0.054,0.781,0.941,1.295
	c0.77,0.4,1.29,0.76,1.051,1.916c-0.238,1.178-1.04,2.211-2.254,2.416c-1.278,0.213-1.56-0.586-1.43-1.758l0.748-0.223
	c-0.076,0.818-0.033,1.416,0.845,1.27c0.63-0.105,1.17-0.619,1.354-1.516C133.921,132.605,133.379,132.373,132.718,132.051z
	 M139.763,127.878l-1.561,0.263l0.141-0.677l3.813-0.638l-0.141,0.674l-1.527,0.256l-1.398,6.814l-0.727,0.121L139.763,127.878z
	 M145.052,131.969l0.997-0.166l-0.334,1.66l-0.997,0.164L145.052,131.969z M156.346,131.031l3.409-4.028
	c0.426-0.505,0.76-0.896,0.89-1.505c0.142-0.706-0.207-1.146-0.91-1.028c-0.854,0.145-1.432,0.913-1.699,1.735l-0.693,0.021
	c0.421-1.274,1.266-2.249,2.546-2.465c1.137-0.188,1.766,0.4,1.529,1.587c-0.153,0.718-0.621,1.34-1.14,1.958l-3.012,3.568
	l3.109-0.518l-0.141,0.672l-4.031,0.676L156.346,131.031z M167.507,126.204c-0.251,1.202-0.596,3.81-2.807,4.179
	c-2.209,0.369-1.494-2.211-1.224-3.504c0.356-1.763,0.705-3.835,2.805-4.187C168.579,122.308,167.68,125.363,167.507,126.204z
	 M164.233,126.753c-0.605,2.938-0.129,3.046,0.606,2.923c0.835-0.141,1.333-0.561,1.906-3.345c0.598-2.896,0.151-3.061-0.618-2.932
	C164.767,123.629,164.536,125.261,164.233,126.753z M174.009,125.116c-0.251,1.201-0.596,3.808-2.806,4.177
	c-2.209,0.369-1.495-2.211-1.224-3.503c0.356-1.761,0.703-3.834,2.806-4.188C175.081,121.219,174.183,124.274,174.009,125.116z
	 M170.736,125.664c-0.607,2.941-0.13,3.045,0.605,2.924c0.835-0.139,1.335-0.561,1.907-3.343c0.596-2.897,0.151-3.062-0.616-2.933
	C171.268,122.539,171.042,124.173,170.736,125.664z M176.645,127.157c0.271,0.259,0.585,0.446,1.052,0.365
	c1.31-0.219,1.745-1.959,1.981-2.964c-0.498,0.451-0.985,0.749-1.55,0.843c-1.364,0.23-1.624-0.843-1.375-2.089
	c0.271-1.323,1.19-2.572,2.578-2.804c1.874-0.313,1.494,2.003,1.202,3.431c-0.305,1.525-0.986,3.959-2.959,4.287
	c-0.585,0.098-1.114-0.041-1.473-0.383L176.645,127.157z M179.137,121.225c-0.89,0.147-1.42,1.019-1.614,1.938
	c-0.175,0.854-0.119,1.679,0.854,1.518c0.512-0.086,1.041-0.531,1.476-0.941C180.315,121.438,179.817,121.109,179.137,121.225z
	 M64.116,115.626V98.548l1.976-0.331c2.324-0.39,3.579-0.135,4.252,1.054c0.652,1.193,0.744,3.313,0.744,6.66
	s-0.092,5.478-0.744,6.889c-0.674,1.413-1.929,2.087-4.252,2.476L64.116,115.626z M66.625,112.697
	c0.86-0.146,1.349-0.32,1.604-1.197c0.116-0.415,0.208-1.034,0.232-1.853c0.023-0.818,0.023-1.908,0.023-3.303
	c0-1.396,0-2.488-0.023-3.297c-0.024-0.785-0.117-1.374-0.232-1.773c-0.257-0.77-0.745-0.782-1.604-0.637V112.697z M77.407,96.325
	l5.742-0.961v2.578l-3.231,0.542v4.483l2.324-0.388v2.742l-2.324,0.388v4.694l3.231-0.541v2.579l-5.742,0.961V96.325z
	 M93.349,110.733l-1.603-10.465l-0.094-0.706l-0.141,0.024v11.454l-2.323,0.39V94.353l3.068-0.513l1.487,7.557l0.117,0.887
	l0.046-0.009l0.118-0.924l1.487-8.057l3.068-0.514v17.08l-2.323,0.391V98.793l-0.14,0.023l-0.094,0.736l-1.604,11.003
	L93.349,110.733z M111.615,104.17c-0.024,0.7-0.163,1.351-0.42,1.929c-0.209,0.498-0.534,0.996-1,1.421
	c-0.465,0.449-1.092,0.765-1.928,0.905c-0.837,0.14-1.487,0.039-1.953-0.256c-0.465-0.27-0.767-0.662-0.975-1.092
	c-0.257-0.491-0.396-1.097-0.42-1.788V95.227c0.024-0.677,0.163-1.328,0.42-1.905c0.208-0.5,0.511-1.015,0.975-1.443
	c0.464-0.426,1.116-0.768,1.953-0.906c0.836-0.141,1.463-0.013,1.928,0.258c0.466,0.271,0.791,0.682,1,1.111
	c0.257,0.492,0.396,1.095,0.42,1.764V104.17z M109.105,94.528c0-0.465-0.092-0.775-0.324-1.015c-0.117-0.097-0.303-0.135-0.513-0.1
	c-0.441,0.074-0.651,0.435-0.743,0.752c-0.07,0.198-0.094,0.41-0.094,0.643v10.062c0,0.486,0.116,0.792,0.349,1.009
	c0.116,0.098,0.279,0.14,0.488,0.105c0.441-0.074,0.65-0.387,0.745-0.752c0.07-0.175,0.092-0.388,0.092-0.642V94.528z
	 M120.607,97.273l-0.209-0.756l-0.139,0.024v9.688l-2.302,0.385V89.538l2.231-0.374l2.441,8.492l0.209,0.755l0.141-0.024v-9.69
	l2.302-0.385v17.079l-2.231,0.373L120.607,97.273z M135.944,91.106c0-0.558-0.023-1.181-0.186-1.642
	c-0.163-0.437-0.419-0.719-0.813-0.654c-0.65,0.131-0.86,0.841-0.86,1.84c0,0.58,0.256,1.141,0.628,1.729
	c0.372,0.587,0.859,1.18,1.349,1.819c0.581,0.763,1.161,1.549,1.604,2.333c0.441,0.786,0.743,1.619,0.743,2.549
	c0,1.139-0.187,2.237-0.72,3.117c-0.534,0.879-1.395,1.533-2.766,1.764c-1.604,0.268-2.51-0.185-3.02-1.027
	c-0.511-0.844-0.628-2.056-0.628-3.334l2.464-0.645c0,0.72,0.024,1.436,0.209,1.94c0.162,0.531,0.441,0.855,0.975,0.766
	c0.745-0.123,1.023-0.961,1.023-2.053c0-0.558-0.278-1.162-0.65-1.773c-0.209-0.29-0.419-0.604-0.65-0.913
	c-0.489-0.615-1.023-1.315-1.58-2.083c-0.558-0.767-0.976-1.58-1.232-2.443c-0.139-0.418-0.208-0.871-0.208-1.335
	c0-0.93,0.208-1.965,0.744-2.82c0.535-0.833,1.349-1.504,2.534-1.726c1.51-0.277,2.393,0.205,2.882,1.027
	c0.488,0.849,0.627,1.964,0.627,2.916L135.944,91.106z M143.52,87.839v-2.579l7.251-1.213v2.579l-2.37,0.398v14.499l-2.511,0.42
	V87.443L143.52,87.839z M160.88,99.435l-1.301-6.986l-0.673,0.113v7.202l-2.512,0.42V83.107l2.512-0.419
	c2.997-0.502,4.273,0.98,4.273,4.209c0,1.697-0.44,3.305-1.393,4.115l1.604,8.003L160.88,99.435z M158.906,90.237
	c0.348-0.058,0.814-0.182,1.183-0.57c0.373-0.388,0.676-1.065,0.676-2.274c0-1.208-0.303-1.808-0.676-2.071
	c-0.368-0.262-0.835-0.208-1.183-0.149V90.237z M168.732,98.12l2.581-17.51l3.068-0.514l2.578,16.647l-2.439,0.409l-0.465-3.408
	l-2.419,0.404l-0.463,3.562L168.732,98.12z M172.986,85.883l-0.071-0.431l-0.137,0.024l-0.072,0.453l-0.721,5.512l1.721-0.288
	L172.986,85.883z M181.375,81.505v-2.579l7.251-1.214v2.58l-2.37,0.396v14.499l-2.511,0.42v-14.5L181.375,81.505z M194.249,76.771
	l2.512-0.42V93.43l-2.512,0.42V76.771z M209.796,87.739c-0.022,0.702-0.162,1.353-0.418,1.929c-0.21,0.5-0.535,0.996-1,1.423
	c-0.465,0.449-1.092,0.762-1.928,0.903c-0.837,0.14-1.486,0.04-1.953-0.254c-0.464-0.27-0.767-0.662-0.976-1.092
	c-0.258-0.491-0.395-1.095-0.417-1.787V78.799c0.023-0.68,0.163-1.33,0.417-1.907c0.209-0.5,0.512-1.016,0.976-1.441
	c0.467-0.426,1.116-0.766,1.953-0.907c0.836-0.14,1.463-0.014,1.928,0.258c0.465,0.271,0.79,0.682,1,1.111
	c0.256,0.491,0.396,1.096,0.418,1.765V87.739z M207.286,78.099c0-0.466-0.095-0.775-0.327-1.015c-0.115-0.097-0.3-0.136-0.509-0.101
	c-0.441,0.074-0.651,0.435-0.743,0.752c-0.071,0.198-0.094,0.411-0.094,0.643v10.061c0,0.489,0.116,0.794,0.351,1.011
	c0.115,0.096,0.277,0.14,0.486,0.105c0.442-0.074,0.651-0.387,0.744-0.752c0.068-0.175,0.092-0.388,0.092-0.643V78.099
	L207.286,78.099z M218.789,80.844l-0.21-0.755l-0.14,0.024v9.69l-2.301,0.385V73.109l2.232-0.374l2.44,8.491l0.209,0.754
	l0.139-0.023v-9.69l2.301-0.385v17.078l-2.23,0.374L218.789,80.844z M234.124,74.675c0-0.557-0.022-1.18-0.185-1.642
	c-0.163-0.438-0.418-0.72-0.814-0.654c-0.649,0.133-0.86,0.842-0.86,1.84c0,0.581,0.259,1.143,0.629,1.729
	c0.373,0.588,0.86,1.181,1.347,1.82c0.581,0.763,1.162,1.548,1.604,2.334s0.743,1.619,0.743,2.547c0,1.139-0.186,2.238-0.721,3.118
	c-0.533,0.88-1.394,1.535-2.765,1.764c-1.604,0.269-2.511-0.184-3.021-1.027c-0.511-0.844-0.628-2.056-0.628-3.334l2.464-0.645
	c0,0.721,0.023,1.436,0.208,1.94c0.165,0.53,0.443,0.856,0.978,0.767c0.743-0.124,1.021-0.961,1.021-2.054
	c0-0.558-0.278-1.16-0.65-1.772c-0.209-0.291-0.418-0.604-0.651-0.914c-0.487-0.615-1.021-1.316-1.577-2.083
	c-0.559-0.766-0.977-1.579-1.233-2.442c-0.139-0.418-0.211-0.871-0.211-1.336c0-0.929,0.211-1.963,0.744-2.819
	c0.536-0.833,1.349-1.504,2.533-1.725c1.511-0.277,2.395,0.203,2.882,1.028c0.489,0.847,0.628,1.963,0.628,2.915L234.124,74.675z
	 M98.71,174.117v3.684c-0.036,1.102-0.255,2.121-0.657,3.031c-0.327,0.783-0.839,1.561-1.569,2.23
	c-0.729,0.707-1.715,1.201-3.029,1.418c-1.313,0.221-2.335,0.064-3.064-0.398c-0.729-0.426-1.204-1.037-1.532-1.713
	c-0.4-0.773-0.62-1.721-0.657-2.809v-15.797c0.038-1.064,0.257-2.086,0.657-2.992c0.329-0.787,0.803-1.594,1.532-2.262
	c0.729-0.67,1.751-1.205,3.064-1.426c1.314-0.219,2.299-0.02,3.029,0.404s1.242,1.068,1.569,1.744
	c0.402,0.773,0.621,1.719,0.657,2.771v3.686l-3.686,0.617v-3.686c0-0.729-0.183-1.209-0.583-1.58
	c-0.182-0.152-0.511-0.207-0.912-0.139c-0.694,0.115-1.022,0.682-1.205,1.188c-0.109,0.309-0.145,0.645-0.183,1.014V178.9
	c0.036,0.762,0.256,1.234,0.621,1.576c0.183,0.15,0.437,0.219,0.766,0.162c0.838-0.139,1.167-0.633,1.35-1.209
	c0.109-0.273,0.145-0.609,0.145-1.012v-3.686L98.71,174.117z M118.628,174.467c-0.036,1.102-0.255,2.123-0.657,3.029
	c-0.329,0.783-0.839,1.562-1.568,2.232c-0.729,0.705-1.715,1.199-3.028,1.42c-1.313,0.219-2.335,0.062-3.065-0.4
	c-0.729-0.426-1.204-1.039-1.532-1.715c-0.4-0.771-0.62-1.721-0.657-2.811v-15.795c0.037-1.062,0.256-2.086,0.657-2.992
	c0.33-0.783,0.804-1.592,1.532-2.262c0.73-0.67,1.751-1.207,3.065-1.426c1.313-0.219,2.299-0.02,3.028,0.404
	c0.729,0.428,1.241,1.07,1.568,1.746c0.401,0.771,0.621,1.719,0.657,2.77V174.467z M114.688,159.33c0-0.73-0.145-1.217-0.51-1.594
	c-0.183-0.15-0.475-0.213-0.803-0.158c-0.694,0.117-1.022,0.684-1.168,1.182c-0.108,0.311-0.145,0.645-0.145,1.01v15.795
	c0,0.768,0.183,1.248,0.547,1.588c0.183,0.15,0.438,0.217,0.767,0.164c0.693-0.117,1.022-0.609,1.168-1.18
	c0.11-0.275,0.145-0.609,0.145-1.01V159.33z M128.588,178.311v-26.814l3.1-0.52c3.648-0.611,5.619-0.211,6.676,1.656
	c1.022,1.871,1.167,5.203,1.167,10.457c0,5.252-0.145,8.596-1.167,10.812c-1.059,2.219-3.028,3.279-6.676,3.889L128.588,178.311z
	 M132.527,173.709c1.35-0.227,2.116-0.5,2.517-1.881c0.183-0.65,0.329-1.621,0.365-2.906c0.036-1.283,0.036-2.996,0.036-5.186
	c0-2.191,0-3.904-0.036-5.176c-0.037-1.234-0.183-2.158-0.365-2.783c-0.401-1.211-1.168-1.229-2.517-1.004V173.709z
	 M156.495,173.641l-2.044-10.971l-1.057,0.178v11.311l-3.94,0.658v-26.812l3.94-0.66c4.706-0.785,6.712,1.539,6.712,6.609
	c0,2.666-0.692,5.189-2.188,6.461l2.517,12.566L156.495,173.641z M153.396,159.201c0.547-0.092,1.274-0.289,1.859-0.896
	c0.584-0.607,1.059-1.672,1.059-3.568c0-1.898-0.475-2.84-1.059-3.254c-0.585-0.412-1.312-0.328-1.859-0.236V159.201z
	 M180.175,164.168c-0.037,1.102-0.257,2.123-0.657,3.029c-0.327,0.783-0.839,1.562-1.57,2.232c-0.729,0.705-1.713,1.199-3.029,1.42
	c-1.312,0.221-2.333,0.062-3.064-0.4c-0.729-0.426-1.202-1.041-1.531-1.715c-0.4-0.771-0.619-1.721-0.656-2.809v-15.795
	c0.037-1.064,0.256-2.088,0.656-2.994c0.329-0.783,0.803-1.592,1.531-2.262c0.731-0.67,1.753-1.203,3.064-1.424
	c1.316-0.221,2.3-0.021,3.029,0.404c0.731,0.424,1.243,1.068,1.57,1.742c0.4,0.771,0.62,1.721,0.657,2.771V164.168z
	 M176.234,149.031c0-0.73-0.146-1.217-0.513-1.594c-0.183-0.152-0.474-0.211-0.804-0.158c-0.691,0.117-1.021,0.682-1.167,1.182
	c-0.108,0.309-0.145,0.643-0.145,1.01v15.795c0,0.77,0.183,1.248,0.546,1.586c0.184,0.154,0.438,0.221,0.766,0.166
	c0.692-0.117,1.023-0.609,1.17-1.18c0.108-0.273,0.146-0.607,0.146-1.012V149.031z M190.132,141.195l3.94-0.658
	c1.715-0.291,3.428-0.139,4.742,0.885c1.313,1.018,2.189,2.914,2.189,5.98c0,3.064-0.876,5.217-2.189,6.678
	c-1.314,1.459-3.027,2.256-4.742,2.545v10.727l-3.94,0.656V141.195z M194.072,152.611c1.203-0.199,1.969-0.549,2.408-1.242
	c0.438-0.658,0.546-1.66,0.546-3.156s-0.111-2.535-0.546-3.121c-0.439-0.582-1.203-0.744-2.408-0.545V152.611z M216.8,143.922
	c0-0.877-0.036-1.857-0.292-2.578c-0.254-0.689-0.657-1.131-1.276-1.029c-1.021,0.207-1.35,1.322-1.35,2.891
	c0,0.914,0.4,1.793,0.985,2.717c0.585,0.926,1.348,1.854,2.116,2.857c0.911,1.197,1.822,2.432,2.515,3.664
	c0.696,1.236,1.169,2.541,1.169,4c0,1.787-0.291,3.514-1.13,4.895c-0.84,1.383-2.188,2.412-4.342,2.771
	c-2.519,0.422-3.94-0.289-4.744-1.617c-0.801-1.322-0.983-3.225-0.983-5.232l3.868-1.01c0,1.127,0.033,2.252,0.326,3.043
	c0.259,0.832,0.693,1.344,1.533,1.203c1.168-0.195,1.604-1.51,1.604-3.223c0-0.877-0.437-1.824-1.021-2.785
	c-0.327-0.455-0.658-0.949-1.02-1.436c-0.769-0.965-1.608-2.066-2.482-3.27c-0.876-1.203-1.531-2.48-1.934-3.836
	c-0.219-0.654-0.327-1.365-0.327-2.096c0-1.459,0.327-3.082,1.167-4.428c0.839-1.309,2.114-2.361,3.977-2.707
	c2.37-0.436,3.757,0.32,4.522,1.613c0.767,1.332,0.984,3.082,0.984,4.578L216.8,143.922z"/>
</svg>
